# xmcd
# 
# Track frame offsets:
#     150
#     13002
#     22050
#     44797
#     66050
#     78202
#     97275
#     120490
#     131797
#     147657
#     167762
# 
# Disc length: 2442
# 
# Revision: 2
# Processed by: cddbd v1.5.2PL0 Copyright (c) Steve Scherf et al.
# Submitted via: fre:ac v1.0.31
# 
DISCID=a109880b
DTITLE=宮川泰 - 宇宙戦艦ヤマト 完結編 音楽集[DISC3]
DYEAR=1995
DGENRE=Soundtrack
TTITLE0=驚異のニュートリノビーム
TTITLE1=ファイナル ヤマト斗い
TTITLE2=古代とヤマト
TTITLE3=ディンギル少年のテーマ
TTITLE4=抜けるヤマト
TTITLE5=沖田と古代
TTITLE6=ディンギル星の水没
TTITLE7=ルガール総銃の斗い
TTITLE8=ユキのテーマ
TTITLE9=島大介のテーマ
TTITLE10=アクエリアス レクイエムII
EXTD=
EXTT0=
EXTT1=
EXTT2=
EXTT3=
EXTT4=
EXTT5=
EXTT6=
EXTT7=
EXTT8=
EXTT9=
EXTT10=
PLAYORDER=
